<?xml version="1.0" standalone="no"?>
<!DOCTYPE svg PUBLIC "-//W3C//DTD SVG 20010904//EN"
 "http://www.w3.org/TR/2001/REC-SVG-20010904/DTD/svg10.dtd">
<svg version="1.0" xmlns="http://www.w3.org/2000/svg"
 width="16.000000pt" height="16.000000pt" viewBox="0 0 16.000000 16.000000"
 preserveAspectRatio="xMidYMid meet">
<metadata>
Created by potrace 1.11, written by Peter Selinger 2001-2013
</metadata>
<g transform="translate(0.000000,16.000000) scale(0.002286,-0.002286)"
fill="#000000" stroke="none">
<path d="M780 6889 c7 -13 51 -89 98 -169 47 -80 90 -154 96 -165 6 -11 62
-104 123 -207 127 -212 197 -338 189 -338 -4 0 -174 133 -229 179 -28 25 -257
211 -322 263 -27 22 -59 47 -70 57 -127 106 -245 196 -245 186 0 -3 24 -38 53
-78 56 -74 264 -362 444 -611 56 -77 103 -145 103 -149 0 -5 -19 5 -42 21 -24
16 -137 92 -253 168 -115 77 -216 145 -224 152 -8 8 -37 27 -66 43 -29 16 -60
38 -70 49 -10 11 -23 20 -28 20 -6 0 -42 22 -81 49 -39 26 -82 54 -96 61 l-25
13 26 -29 c14 -16 57 -65 95 -109 37 -44 78 -91 90 -105 12 -14 55 -63 95
-110 40 -47 75 -87 78 -90 6 -5 157 -180 211 -244 18 -21 20 -28 8 -24 -15 6
-160 98 -262 167 -21 14 -62 39 -90 55 -28 16 -109 67 -179 113 -71 46 -141
90 -158 98 -31 16 -40 6 -13 -16 8 -7 50 -56 93 -108 42 -53 187 -231 320
-396 333 -412 383 -473 409 -503 12 -15 42 -52 65 -82 23 -30 44 -57 47 -60 3
-3 125 -151 270 -330 146 -179 272 -334 281 -345 31 -37 242 -297 430 -530
282 -351 402 -499 416 -513 7 -8 18 -22 23 -33 9 -16 6 -21 -22 -34 -29 -12
-329 -120 -768 -275 -173 -61 -194 -70 -189 -75 4 -3 106 -12 162 -14 27 -1
20 -22 -20 -67 -21 -23 -53 -58 -70 -77 -18 -20 -29 -38 -24 -41 4 -3 49 -6
99 -7 54 -1 92 -6 92 -11 0 -6 -37 -48 -82 -94 l-82 -84 113 1 c62 0 115 -1
117 -4 6 -6 -46 -87 -115 -180 -40 -53 -47 -67 -33 -68 21 -2 5 -2 135 6 123
8 117 17 57 -75 -16 -25 -34 -56 -40 -70 -6 -13 -15 -27 -19 -30 -11 -8 -61
-97 -61 -109 0 -19 21 -13 170 49 80 33 151 60 159 60 9 0 11 -7 7 -22 -16
-59 -39 -189 -33 -194 3 -3 41 14 84 37 139 76 215 107 199 80 -8 -12 -11 -27
-20 -87 -3 -22 -9 -57 -12 -78 l-6 -39 125 67 c69 36 128 66 131 66 4 0 6 -45
6 -100 0 -55 4 -100 8 -100 8 0 71 38 148 88 33 21 64 35 68 31 3 -3 6 -39 7
-82 1 -42 5 -77 9 -77 8 0 34 49 235 445 132 260 211 411 219 422 3 4 55 -35
218 -163 84 -66 272 -214 418 -327 271 -212 333 -262 355 -283 7 -7 28 -23 46
-36 19 -13 69 -50 112 -83 43 -33 98 -73 121 -90 24 -16 63 -47 87 -67 84 -70
740 -582 1150 -897 95 -74 176 -137 179 -141 5 -7 230 -181 309 -239 25 -19
64 -49 85 -68 22 -18 41 -31 44 -29 5 5 -25 48 -348 501 -123 174 -164 234
-159 239 3 3 120 -90 209 -168 14 -12 50 -42 80 -66 30 -25 66 -55 80 -67 85
-73 302 -250 338 -275 51 -35 51 -34 -49 107 -38 55 -93 134 -121 175 -28 41
-54 77 -58 80 -4 3 -9 10 -11 16 -4 11 -134 199 -241 349 -72 100 -68 106 26
41 32 -23 66 -45 75 -51 9 -5 63 -44 121 -85 97 -69 249 -176 310 -217 89 -61
226 -158 230 -163 3 -4 16 -13 30 -20 25 -13 25 -13 -4 26 -37 49 -148 187
-156 194 -5 4 -102 125 -137 170 -6 8 -41 51 -78 95 -36 44 -72 87 -78 95 -50
63 -160 198 -171 210 -7 8 -19 26 -26 39 l-13 24 34 -19 c19 -11 156 -89 304
-174 149 -84 286 -163 305 -175 32 -20 61 -37 163 -94 21 -11 40 -21 43 -21
12 0 -116 165 -367 476 -238 293 -262 324 -248 324 10 0 265 -108 429 -182 79
-36 184 -78 187 -74 3 3 -332 338 -504 504 -51 49 -258 251 -460 449 -203 198
-406 398 -453 443 -298 290 -832 812 -982 963 l-177 177 20 48 c11 26 33 70
49 97 15 28 60 113 100 190 104 201 117 221 163 257 23 18 53 44 67 57 14 13
58 49 97 82 40 32 70 60 65 62 -4 2 -125 5 -270 6 l-262 2 -188 -97 c-103 -53
-228 -118 -278 -145 l-92 -49 -114 112 c-378 371 -893 876 -953 933 -38 37
-178 174 -311 304 -715 702 -1157 1131 -1161 1127 -5 -4 42 -116 121 -288 42
-92 76 -170 76 -172 0 -2 23 -53 51 -113 83 -175 83 -174 10 -116 -44 36 -454
386 -477 408 -6 5 -35 30 -64 55 -30 25 -103 87 -163 139 -61 53 -104 83 -97
70z"/>
</g>
</svg>
