<?xml version="1.0" encoding="utf-8"?>
<!-- Generator: Adobe Illustrator 17.1.0, SVG Export Plug-In . SVG Version: 6.00 Build 0)  -->
<!DOCTYPE svg PUBLIC "-//W3C//DTD SVG 1.1//EN" "http://www.w3.org/Graphics/SVG/1.1/DTD/svg11.dtd">
<svg version="1.1" id="Layer_1" xmlns="http://www.w3.org/2000/svg" xmlns:xlink="http://www.w3.org/1999/xlink" x="0px" y="0px"
	 viewBox="0 0 30 30" enable-background="new 0 0 30 30" xml:space="preserve">
<g id="Layer_x0020_1">
	<g id="_320501824">
		<g>
			<path fill="#FFFFFF" d="M15.9,6.6c4.9,0.7,7.2,3.1,7.9,8l0,0c0,0.5,0,1.1,0.5,1.1c0.5,0,0.5-0.4,0.5-0.8c0,0,0-0.1,0-0.3
				c0.1-4.7-4-8.9-8.8-9c-0.4,0-1.2-0.3-1.2,0.5C14.8,6.6,15.5,6.5,15.9,6.6z"/>
			<path fill="#FFFFFF" d="M16.8,8c-0.5-0.1-1.1-0.3-1.2,0.3C15.5,9,16.1,8.9,16.7,9c3.1,0.7,4.1,1.7,4.7,4.8c0,0.1,0,0.3,0,0.4
				c0,0.3,0.1,0.7,0.7,0.5c0.3,0,0.4-0.1,0.4-0.4c0-0.1,0-0.4,0-0.5C22.4,10.9,19.9,8.2,16.8,8z"/>
			<path fill="#FFFFFF" d="M17.1,10.2c-0.3,0-0.7,0.1-0.7,0.4c-0.3,0.5,0.1,0.7,0.5,0.7c1.2,0.3,1.9,0.9,2,2.1
				c0,0.3,0.1,0.4,0.1,0.5c0.1,0,0.3,0.1,0.5,0.1l0.1-0.1c0.3-0.1,0.3-0.4,0.3-0.7C20,11.8,18.4,10.2,17.1,10.2z"/>
			<path fill="#FFFFFF" d="M23.5,20c-0.7-0.5-1.3-0.9-1.9-1.3c-1.3-0.9-2.5-0.9-3.6,0.4c-0.5,0.8-1.2,0.9-2,0.5
				c-2.3-0.9-4-2.5-4.9-4.7c-0.1-0.4-0.3-0.7-0.3-1.1c-0.1-0.5,0.1-1.1,0.8-1.5c0.5-0.4,1.1-0.8,1.1-1.6c0-1.1-2.7-4.5-3.6-4.9
				c-0.4-0.1-0.8-0.1-1.3,0c-2.4,0.8-3.3,2.8-2.4,5.1c0.5,1.2,1.2,2.4,1.9,3.5c2.9,4.9,7.2,8.5,12.8,10.8c0.4,0.3,0.8,0.3,0.9,0.4
				c1.6,0,3.5-1.5,4-2.9C25.3,21.1,24.2,20.6,23.5,20z"/>
		</g>
	</g>
</g>
</svg>
