<?xml version="1.0" encoding="utf-8"?>
<!-- Generator: Adobe Illustrator 17.1.0, SVG Export Plug-In . SVG Version: 6.00 Build 0)  -->
<!DOCTYPE svg PUBLIC "-//W3C//DTD SVG 1.1//EN" "http://www.w3.org/Graphics/SVG/1.1/DTD/svg11.dtd">
<svg version="1.1" id="Layer_1" xmlns="http://www.w3.org/2000/svg" xmlns:xlink="http://www.w3.org/1999/xlink" x="0px" y="0px"
	 viewBox="-129 0 871.5 700" enable-background="new -129 0 871.5 700" xml:space="preserve">
<circle fill="#FFD55C" cx="310.1" cy="350" r="350"/>
<path fill="#FFB733" d="M660.2,350c0,193.4-156.7,350-350,350c-71.7,0-138.3-21.5-193.7-58.6c-2.4-1.5-4.7-3.1-6.9-4.7
	c-4.9-3.4-9.7-6.9-14.3-10.6c-30.9-24-57.6-53.1-78.8-86.1h93.2V211.2c0-28,22.7-50.6,50.7-50.6h152v-35.9c0-28,22.7-50.7,50.7-50.7
	h162.5c50.8,39.6,90.3,92.9,113.1,154.4C652.6,266.3,660.2,307.2,660.2,350z"/>
<path fill="#D9D8D7" d="M689.2,74c-28,0-50.6,22.7-50.6,50.6v37.6h101.3v-37.6C739.9,96.6,717.2,74,689.2,74z"/>
<path fill="#F2F2F2" d="M362.9,74c-28,0-50.7,22.7-50.7,50.6v210h275.7c28,0,50.7-22.7,50.7-50.6V124.7c0-28,22.7-50.6,50.6-50.6
	L362.9,74L362.9,74z"/>
<path fill="#FF6D3B" d="M407.8,166.1l-36.9,45.6c-25.2-20.4-29.1-57.4-8.7-82.6c11.5-14.2,27.4-21.7,45.6-21.7V166.1L407.8,166.1z"
	/>
<path fill="#D9D8D7" d="M407.8,166.1l-5.1,58.5c-12.1-1-22.4-5.2-31.8-12.8L407.8,166.1z"/>
<path fill="#21D8DE" d="M407.8,166.1l52.3-26.6c14.7,28.9,3.2,64.3-25.7,79c-10.2,5.2-20.3,7.2-31.7,6.1L407.8,166.1z"/>
<path fill="#3E4959" d="M407.8,166.1v-58.7c23,0,41.9,11.6,52.3,32.1L407.8,166.1z"/>
<g>
	<rect x="541.7" y="113.5" fill="#D9D8D7" width="38" height="8.1"/>
	<rect x="585.7" y="113.5" fill="#D9D8D7" width="15.9" height="8.1"/>
	<rect x="541.7" y="178.2" fill="#D9D8D7" width="59.9" height="8.1"/>
	<rect x="592.2" y="210.6" fill="#D9D8D7" width="9.5" height="8.1"/>
	<rect x="541.7" y="210.6" fill="#D9D8D7" width="45.4" height="8.1"/>
	<rect x="541.7" y="145.9" fill="#D9D8D7" width="11.1" height="8.1"/>
	<rect x="560.5" y="145.9" fill="#D9D8D7" width="16.9" height="8.1"/>
	<rect x="584.8" y="145.9" fill="#D9D8D7" width="16.9" height="8.1"/>
</g>
<path fill="#3E4959" d="M530.6,117.5c0,5.6-4.6,10.2-10.2,10.2c-5.6,0-10.2-4.6-10.2-10.2c0-5.6,4.6-10.2,10.2-10.2
	C526,107.3,530.6,111.9,530.6,117.5z"/>
<path fill="#D9D8D7" d="M530.6,149.9c0,5.6-4.6,10.2-10.2,10.2c-5.6,0-10.2-4.6-10.2-10.2c0-5.6,4.6-10.2,10.2-10.2
	S530.6,144.3,530.6,149.9z"/>
<path fill="#FF6D3B" d="M530.6,182.2c0,5.6-4.6,10.2-10.2,10.2c-5.6,0-10.2-4.6-10.2-10.2s4.6-10.2,10.2-10.2
	S530.6,176.7,530.6,182.2z"/>
<path fill="#21D8DE" d="M530.6,214.6c0,5.6-4.6,10.2-10.2,10.2c-5.6,0-10.2-4.6-10.2-10.2s4.6-10.2,10.2-10.2S530.6,209,530.6,214.6
	z"/>
<path fill="#FFFFFF" d="M486.5,160.6c-28,0-50.7,22.7-50.7,50.6v379.5c0,28-22.7,50.6-50.6,50.6H109.6V211.2
	c0-28,22.7-50.6,50.6-50.6L486.5,160.6L486.5,160.6z"/>
<g>
	<rect x="146.3" y="374.2" fill="#D9D8D7" width="32.1" height="33.9"/>
	<rect x="201.5" y="316.8" fill="#D9D8D7" width="32.1" height="91.2"/>
	<rect x="256.6" y="341.8" fill="#D9D8D7" width="32.1" height="66.2"/>
	<rect x="311.7" y="272" fill="#D9D8D7" width="32.1" height="136"/>
	<rect x="366.9" y="292" fill="#D9D8D7" width="32.1" height="116.1"/>
</g>
<g>
	<rect x="146.3" y="400" fill="#FF6D3B" width="32.1" height="8"/>
	<rect x="201.5" y="386.5" fill="#FF6D3B" width="32.1" height="21.5"/>
	<rect x="256.6" y="392.5" fill="#FF6D3B" width="32.1" height="15.6"/>
	<rect x="311.7" y="375.9" fill="#FF6D3B" width="32.1" height="32.1"/>
	<rect x="366.9" y="380.6" fill="#FF6D3B" width="32.1" height="27.3"/>
</g>
<g>
	<rect x="146.3" y="360.3" fill="#21D8DE" width="32.1" height="13.8"/>
	<rect x="201.5" y="273.9" fill="#21D8DE" width="32.1" height="42.9"/>
	<rect x="256.6" y="333.1" fill="#21D8DE" width="32.1" height="8.8"/>
	<rect x="311.7" y="251.6" fill="#21D8DE" width="32.1" height="20.4"/>
	<rect x="366.9" y="239.3" fill="#21D8DE" width="32.1" height="52.7"/>
</g>
<rect x="146.3" y="423.3" fill="#3E4959" width="252.7" height="12.5"/>
<g>
	<rect x="220.4" y="473.1" fill="#D9D8D7" width="178.2" height="7.3"/>
	<rect x="146.3" y="473.1" fill="#D9D8D7" width="60.2" height="7.3"/>
	<rect x="146.3" y="495.8" fill="#D9D8D7" width="252.4" height="7.3"/>
	<rect x="146.3" y="518.5" fill="#D9D8D7" width="126.2" height="7.3"/>
	<path fill="#D9D8D7" d="M537.1,284v-72.7c0-28-22.7-50.6-50.6-50.6c-28,0-50.6,22.7-50.6,50.6v123.4h152
		C559.8,334.6,537.1,312,537.1,284z"/>
	<path fill="#D9D8D7" d="M109.6,590.8v50.6H58.9C86.9,641.5,109.6,618.8,109.6,590.8z"/>
	<path fill="#D9D8D7" d="M385.1,641.5H58.8c-28,0-50.6-22.7-50.6-50.6v-50.7h326.3v50.7C334.5,618.8,357.2,641.5,385.1,641.5z"/>
</g>
</svg>
