<?xml version="1.0" encoding="utf-8"?>
<!-- Generator: Adobe Illustrator 17.1.0, SVG Export Plug-In . SVG Version: 6.00 Build 0)  -->
<!DOCTYPE svg PUBLIC "-//W3C//DTD SVG 1.1//EN" "http://www.w3.org/Graphics/SVG/1.1/DTD/svg11.dtd">
<svg version="1.1" xmlns="http://www.w3.org/2000/svg" xmlns:xlink="http://www.w3.org/1999/xlink" x="0px" y="0px"
	 viewBox="0 0 990 990" enable-background="new 0 0 990 990" xml:space="preserve">
<g id="Layer_1">
	<g>
		<circle fill="#C1D356" cx="495" cy="495" r="495"/>
		<path fill="#9DB138" d="M989.9,488c0,0,0.1,4.8,0.1,7c0,273.4-221.6,495-495,495c-2,0-6,0-6,0L249.4,792.1L746,188.2L989.9,488z"
			/>
		<path display="none" fill="#9DB138" d="M989.6,508.9L757.9,277.1c-0.1-0.2-0.2-0.3-0.4-0.5l-2.6-2.6c-0.2-0.2-0.3-0.2-0.5-0.4
			c-2.1-1.4-4.6-2.2-7.2-2.2H262.8c-7.1,0-12.9,5.9-12.9,12.9v325.6c0,2.4,0.6,4.6,1.8,6.5l4.6,4.6l338.8,358.8
			C816.1,934.4,983.2,741.7,989.6,508.9z"/>
	</g>
</g>
<g id="Layer_5">
	<g id="Layer_1_2_">
		<g>
			<g>
				<path fill="#3F5164" d="M733.2,797.7H258.8c-7.1,0-12.8-7.9-12.8-17.6V225.5c0-9.7,5.7-17.6,12.8-17.6h474.4
					c7.1,0,12.8,7.9,12.8,17.6v554.6C746,789.8,740.3,797.7,733.2,797.7z"/>
			</g>
			<g>
				<path fill="#FFFFFF" d="M733.2,778H258.8c-7.1,0-12.8-7.9-12.8-17.6V188.2h500v572.2C746,770.1,740.3,778,733.2,778z"/>
			</g>
			<g>
				<rect x="246" y="188.2" fill="#ED6D43" width="500" height="91.1"/>
			</g>
			<g>
				<g>
					<circle fill="#FFD55D" cx="596.2" cy="235.8" r="18.5"/>
				</g>
				<g>
					<circle fill="#FFD55D" cx="650.1" cy="235.8" r="18.5"/>
				</g>
				<g>
					<circle fill="#FFD55D" cx="704" cy="235.8" r="18.5"/>
				</g>
			</g>
			<g>
				<g>
					<path fill="#56BFCE" d="M298.7,353.2h98.4c6.2,0,11.2,5.5,11.2,12.3v107.8c0,6.8-5,12.3-11.2,12.3h-98.4
						c-6.2,0-11.2-5.5-11.2-12.3V365.5C287.5,358.7,292.6,353.2,298.7,353.2z"/>
				</g>
				<g>
					<path fill="#D9D8D7" d="M449.7,383.1h221c5.1,0,9.2-5.7,9.2-12.7c0-7-4.1-12.7-9.2-12.7h-221c-5.1,0-9.2,5.7-9.2,12.7
						C440.5,377.4,444.6,383.1,449.7,383.1z"/>
				</g>
				<g>
					<path fill="#D9D8D7" d="M449.7,432.1h221c5.1,0,9.2-5.7,9.2-12.7c0-7-4.1-12.7-9.2-12.7h-221c-5.1,0-9.2,5.7-9.2,12.7
						C440.5,426.4,444.6,432.1,449.7,432.1z"/>
				</g>
				<g>
					<path fill="#D9D8D7" d="M449.7,481h124.8c5.1,0,9.2-5.7,9.2-12.7c0-7-4.1-12.7-9.2-12.7H449.7c-5.1,0-9.2,5.7-9.2,12.7
						C440.5,475.4,444.6,481,449.7,481z"/>
				</g>
			</g>
			<g>
				<g>
					<path fill="#56BFCE" d="M298.7,556.4h98.4c6.2,0,11.2,5.5,11.2,12.3v107.8c0,6.8-5,12.3-11.2,12.3h-98.4
						c-6.2,0-11.2-5.5-11.2-12.3V568.7C287.5,561.9,292.6,556.4,298.7,556.4z"/>
				</g>
				<g>
					<path fill="#D9D8D7" d="M449.7,586.3h221c5.1,0,9.2-5.7,9.2-12.7c0-7-4.1-12.7-9.2-12.7h-221c-5.1,0-9.2,5.7-9.2,12.7
						C440.5,580.6,444.6,586.3,449.7,586.3z"/>
				</g>
				<g>
					<path fill="#D9D8D7" d="M449.7,635.2h221c5.1,0,9.2-5.7,9.2-12.7c0-7-4.1-12.7-9.2-12.7h-221c-5.1,0-9.2,5.7-9.2,12.7
						C440.5,629.6,444.6,635.2,449.7,635.2z"/>
				</g>
				<g>
					<path fill="#D9D8D7" d="M449.7,684.2h124.8c5.1,0,9.2-5.7,9.2-12.7c0-7-4.1-12.7-9.2-12.7H449.7c-5.1,0-9.2,5.7-9.2,12.7
						C440.5,678.6,444.6,684.2,449.7,684.2z"/>
				</g>
			</g>
			<g display="none">
				<g display="inline">
					<path fill="#02A389" d="M321,559.6h78.4c4.9,0,8.9,5.5,8.9,12.3v107.8c0,6.8-4,12.3-8.9,12.3H321c-4.9,0-8.9-5.5-8.9-12.3
						V571.8C312.1,565,316.1,559.6,321,559.6z"/>
				</g>
				<g display="inline">
					<path fill="#4C6980" d="M449.7,589.4h221c5.1,0,9.2-5.7,9.2-12.7c0-7-4.1-12.7-9.2-12.7h-221c-5.1,0-9.2,5.7-9.2,12.7
						C440.5,583.8,444.6,589.4,449.7,589.4z"/>
				</g>
				<g display="inline">
					<path fill="#4C6980" d="M449.7,638.4h221c5.1,0,9.2-5.7,9.2-12.7c0-7-4.1-12.7-9.2-12.7h-221c-5.1,0-9.2,5.7-9.2,12.7
						C440.5,632.7,444.6,638.4,449.7,638.4z"/>
				</g>
				<g display="inline">
					<path fill="#4C6980" d="M449.7,687.4h124.8c5.1,0,9.2-5.7,9.2-12.7c0-7-4.1-12.7-9.2-12.7H449.7c-5.1,0-9.2,5.7-9.2,12.7
						C440.5,681.7,444.6,687.4,449.7,687.4z"/>
				</g>
			</g>
		</g>
	</g>
</g>
</svg>
