<?xml version="1.0" encoding="utf-8"?>
<!-- Generator: Adobe Illustrator 17.1.0, SVG Export Plug-In . SVG Version: 6.00 Build 0)  -->
<!DOCTYPE svg PUBLIC "-//W3C//DTD SVG 1.1//EN" "http://www.w3.org/Graphics/SVG/1.1/DTD/svg11.dtd">
<svg version="1.1" id="Layer_1" xmlns="http://www.w3.org/2000/svg" xmlns:xlink="http://www.w3.org/1999/xlink" x="0px" y="0px"
	 viewBox="0 0 990 990" enable-background="new 0 0 990 990" xml:space="preserve">
<circle fill="#FFD75F" cx="495" cy="495" r="495"/>
<path display="none" fill="#F9BB20" d="M989.6,508.9L757.9,277.1c-0.1-0.2-0.2-0.3-0.4-0.5l-2.6-2.6c-0.2-0.2-0.3-0.2-0.5-0.4
	c-2.1-1.4-4.6-2.2-7.2-2.2H242.8c-7.1,0-12.9,5.9-12.9,12.9v325.6c0,2.4,0.6,4.6,1.8,6.5l4.6,4.6l358.8,358.8
	C816.1,934.4,983.2,741.7,989.6,508.9z"/>
<path fill="#F9BB20" d="M820.6,559.6l-117.3,3.3L495,578l-207.7-21.8l-61.8-6.2c-7.1,0-88.5,24-88.5,31l-41.6,22.1
	c0,0,432.1,385.5,463,382.2c4.8-0.5,9.7-1.1,14.6-1.9c37.5-5.6,75.3-17.5,85.8-21.2c140.1-49.1,251.3-159.5,301.7-299
	c1.5-4.3,3-8.6,4.5-12.9C966.2,646.5,820.6,559.6,820.6,559.6z"/>
<g id="Multicolor" display="none">
	<g display="inline">
		<path fill="#F6B5B5" d="M454.4,608.8L432.1,551c-5.5-14.3-17.3-25.2-32-29.6l-81.9-19.5v-51.2c-17.6,27.2-41.6,40-61.9,46.8
			c-20.3-6.8-44.3-19.5-61.9-46.7V516c0,0,12.4,24.7,61.9,24.7v68.1H454.4z"/>
		<path fill="#3F3E3F" d="M318.2,501.9l30.9,7.4v-106c-3.5,3.6-7.9,6.1-13.5,7.1c-4.3,16.2-10.4,29.4-17.5,40.3V501.9z"/>
		<path fill="#F8C7C8" d="M194.5,450.8v51.1l-81.9,19.5c-14.7,4.4-26.5,15.3-32,29.6l-22.2,57.8h198V497.4
			C236.1,490.7,212.1,477.9,194.5,450.8z"/>
		<path fill="#F8C7C8" d="M349.3,349C349.3,349,349.3,349,349.3,349c-9.5,2.6-54.2-9-55.8-100.4c-10.2-3.1-22.4-4.8-37.2-4.8
			c-80.3,0-86.5,49.3-86.6,105c0,103.9,49.5,136.2,86.6,148.6c28.5-9.5,64.2-30.8,79.3-87.1c20.5-3.5,25.8-28.5,25.8-47.7
			C361.6,355.9,355.5,349.1,349.3,349z"/>
		<g>
			<path fill="#EB5858" d="M432.1,551c-3.6-9.4-10-17.3-18.1-22.9c-15.2,28.4-82.8,49.8-163.8,49.8c-74.6,0-137.7-18.1-159.2-43.1
				c-4.4,4.7-8,10.1-10.4,16.3l-22.2,57.8h198h198L432.1,551z"/>
		</g>
		<g>
			<path fill="#FAD7D7" d="M256.4,243.8c-80.3,0-86.5,49.3-86.6,105c0,103.9,49.5,136.2,86.6,148.6V243.8z"/>
		</g>
		<g>
			<path fill="#3F3E3F" d="M237.8,361.3c0-6.8-5.5-12.4-12.4-12.4c0,0,0,0,0,0c0,0.1,0,0.3,0,0.4c0,6.8-5.5,12.3-12.3,12.4
				c0.2,6.7,5.6,12,12.3,12C232.3,373.7,237.8,368.2,237.8,361.3z"/>
		</g>
		<g>
			<path fill="#3F3E3F" d="M299.6,361.3c0-6.8-5.5-12.4-12.4-12.4c0,0,0,0,0,0c0,0.1,0,0.3,0,0.4c0,6.8-5.5,12.3-12.3,12.4
				c0.2,6.7,5.6,12,12.3,12C294.1,373.7,299.6,368.2,299.6,361.3z"/>
		</g>
		<g>
			<path fill="#F29293" d="M225.4,429.4h61.9c0,0,0,18.6-30.9,18.6S225.4,429.4,225.4,429.4z"/>
		</g>
		<g>
			<path fill="#3F3E3F" d="M145,311.8v284.6c0,0,68.1-37.1,68.1-150.3v-97.2c0-98.9,86.6-49.5,80.4-105.2
				C293.5,194.3,145,219,145,311.8z"/>
		</g>
		<g>
			<path fill="#3F3E3F" d="M293.5,244.2c0.2,95.5,46.2,107.5,55.8,104.9c0-20.1,13.1-105-55.4-105.3
				C293.7,243.8,293.5,244,293.5,244.2z"/>
		</g>
		<g>
			<path fill="#FFFFFF" d="M345.1,417l9.4,22.8c1.6,3.8,0.7,8.2-2.2,11.1c-4,4-10.5,4-14.5,0c-2.9-2.9-3.8-7.3-2.2-11.1L345.1,417z"
				/>
		</g>
	</g>
</g>
<g id="Multicolor_2_" display="none">
	<g display="inline">
		<path fill="#F8C7C8" d="M831.6,353c-10.6,5.9-10.7,11.9-10.7,22.5v7.3h-12.4v-74.3c-22.8,5.5-49.1,8-74.3,6.5v0.1
			c-24.8-1.4-54.2-7.6-74.3-21.9v89.7h-12.4v18.6l24.8,61.9l31.6,24.8c3.5,4,8.6,6.2,13.9,6.2h16.4h16.4c5.3,0,10.4-2.3,13.9-6.2
			l31.6-24.8l19.9-49.7c17.6-1.3,23.5-27.9,23.5-48.1C839.5,360.4,836,355.2,831.6,353z"/>
		<path fill="#F6B5B5" d="M750.6,494.2h-16.4h-16.4c-5.3,0-10.4-2.3-13.9-6.2l-31.6-24.8v24.8l61.9,49.6c0,0,0,0,0,0c0,0,0,0,0,0
			l61.9-49.6v-24.8L764.5,488C761,492,755.9,494.2,750.6,494.2z"/>
		<path fill="#F8C7C8" d="M703.9,488l-31.6-24.8v24.8l61.9,49.6c0,0,0,0,0,0v-43.4h-16.4C712.5,494.2,707.4,492,703.9,488z"/>
		<path fill="#FAD7D7" d="M659.9,382.8h-12.4v-7.3c0-10.6-0.1-16.7-10.7-22.5c-4.4,2.2-7.9,7.4-7.9,12.6c0,20.1,5.9,46.8,23.5,48.1
			l19.9,49.7l31.6,24.8c3.5,4,8.6,6.2,13.9,6.2h16.4V315c-28.5-1.7-55.5-8.5-74.3-21.9V382.8z"/>
		<g>
			<polygon fill="#FFFFFF" points="698.2,555 734.2,612 770.2,555 808.5,494.2 796.1,488.1 734.2,537.6 672.3,488.1 659.9,494.2 			
				"/>
		</g>
		<g>
			<path fill="#F29293" d="M703.2,426.1h61.9c0,0,0,18.6-31,18.6S703.2,426.1,703.2,426.1z"/>
		</g>
		<g>
			<path fill="#0B84AC" d="M536,612l24.8-68.1c3.8-8.3,10.5-14.8,18.8-18.5l80.3-31.1L734.2,612H536z"/>
		</g>
		<g>
			<path fill="#0B84AC" d="M932.4,612l-24.8-68.1c-3.8-8.3-10.5-14.8-18.8-18.5l-80.3-31.1L734.2,612H932.4z"/>
		</g>
		<g>
			<polygon fill="#7DCCE5" points="641.3,500.5 709.4,612 734.2,612 725,597.3 659.9,494.3 			"/>
		</g>
		<g>
			<polygon fill="#7DCCE5" points="827.1,500.5 759,612 734.2,612 743.4,597.3 808.5,494.3 			"/>
		</g>
		<path fill="#E02E2D" d="M789.9,525.2l-41.7,18.9c-3.4-4-8.4-6.6-14.1-6.6s-10.7,2.6-14.1,6.6l-41.7-18.9v61.9l41.7-18.9
			c3.4,4,8.4,6.6,14.1,6.6s10.7-2.6,14.1-6.6l41.7,18.9V525.2z"/>
		<g>
			<path fill="#3F3E3F" d="M774.5,327c-9.5,0-18.1,3.9-24.3,10.2c-10-5.1-21.9-5.1-31.9,0c-6.2-6.3-14.8-10.2-24.3-10.2
				c-18.8,0-34.1,15.2-34.1,34.1c0,18.8,15.2,34.1,34.1,34.1c18.8,0,34.1-15.2,34.1-34.1c0-5.5-1.3-10.7-3.6-15.2
				c6.3-2.7,13.4-2.7,19.7,0c-2.3,4.6-3.6,9.8-3.6,15.2c0,18.8,15.2,34.1,34.1,34.1c18.8,0,34.1-15.2,34.1-34.1
				C808.5,342.3,793.3,327,774.5,327z"/>
		</g>
		<g>
			<circle fill="#A3D9EA" cx="693.9" cy="361.1" r="21.7"/>
		</g>
		<g>
			<circle fill="#A3D9EA" cx="774.5" cy="361.1" r="21.7"/>
		</g>
		<g>
			<path fill="#CCE9F2" d="M693.9,339.4c-12,0-21.7,9.7-21.7,21.7c0,6.1,2.6,11.7,6.7,15.6l30.6-30.6
				C705.6,342,700.1,339.4,693.9,339.4z"/>
		</g>
		<g>
			<path fill="#CCE9F2" d="M774.3,339.4c-12,0-21.7,9.7-21.7,21.7c0,6.1,2.6,11.7,6.7,15.6l30.6-30.6
				C786,342,780.5,339.4,774.3,339.4z"/>
		</g>
		<path fill="#84472E" d="M858.1,287.4c-12-82-210.6-87.8-210.6-12.5c0,5.5,0,7,0,7c30.7,35.9,106.1,39.8,161,26.6v74.3h12.4v-7.3
			c0-11.2,0-17.3,12.4-23.5v-51.2C843.1,296.9,851.6,292.4,858.1,287.4z"/>
		<path fill="#9D6245" d="M734.2,222.1c-45.7,1.2-86.5,18.6-86.7,52.6c-7.4,4.3-12.4,12.2-12.4,21.3v56
			c12.4,6.2,12.4,12.3,12.4,23.5v7.3h12.4v-89.7c18.8,13.4,45.9,20.2,74.3,21.9V222.1z"/>
	</g>
</g>
<g id="Multicolor_1_" display="none">
	<g display="inline">
		<g>
			<polygon fill="#F1F2F2" points="490.1,788 404.7,652.7 575.5,652.7 			"/>
		</g>
		<g>
			<path fill="#F6B5B5" d="M518.5,652.9h-28.5h-28.5l-42.7-26.7v22.9c0,0,0,53.4,71.2,53.4s71.2-53.4,71.2-53.4v-22.9L518.5,652.9z"
				/>
		</g>
		<path fill="#F8C7C8" d="M611.1,504.8c0-7.9-7.1-15.8-14.2-15.8s-7.1,7.9-7.1,7.9V489c-0.1-64.1-7.3-106.8-99.7-106.8
			s-99.5,42.7-99.7,106.8v56.9l28.5,71.2l36.3,28.4c4.1,4.5,9.9,7.1,15.9,7.1h18.9H509c6.1,0,11.9-2.6,15.9-7.1l36.3-28.4l22.8-57.1
			C604.3,558.6,611.1,528,611.1,504.8z"/>
		<path fill="#FAD7D7" d="M390.4,489v7.9c0,0,0-7.9-7.1-7.9c-7.1,0-14.2,7.9-14.2,15.8c0,23.2,6.8,53.8,27,55.2l22.8,57.1l36.3,28.4
			c4.1,4.5,9.9,7.1,15.9,7.1h18.9V382.2C397.7,382.2,390.5,424.9,390.4,489z"/>
		<g>
			<polygon fill="#F8C7C8" points="440.2,596 440.3,595.7 433,595.7 433.1,596 			"/>
			<path fill="#F8C7C8" d="M490.1,652.9h-28.5l-42.7-26.7v22.9c0,0,0,53.4,71.2,53.4V652.9L490.1,652.9z"/>
		</g>
		<path fill="#6A2F19" d="M581.2,412.6c0.7-3,1-6,1-9c0-20.2-6.5-34-92.2-35.4v-0.2c-4.5-0.1-9.2-0.1-14.1-0.1
			c-89.1,0-92.8,56.8-92.6,68.9c0,1.4,0.1,2.3,0.1,2.3s0,35.7,0,49.9c0,0,0,0.1,0,0.1c0,0,7.1,14.2,14.2,28.5v49.8l7,49.8l56.9,35.6
			h28.5l0,0h28.5l56.9-35.6l7-49.8v-49.8h0.2l14.2-28.5v-35.8C597,439.3,591.7,425.3,581.2,412.6z M547,596h-7.1l-14.2-42.7h-35.6
			l0,0h-35.6L440.2,596h-7.1l-21.4-42.7V436.8c23.8,16,48.5,16.9,78.3,16.8v0c18.5-0.1,56.2,0.2,78.3-19.8v119.5L547,596z"/>
		<path fill="#84472E" d="M490.1,453.6v-85.5c-4.5-0.1-9.2-0.1-14.1-0.1c-99.7,0-92.5,71.2-92.5,71.2s0,35.8,0,50.1
			c0,0,7.1,14.2,14.2,28.5v49.8l7,49.8l56.9,35.6h28.5v-99.7h-35.6L440.2,596h-7.1l-21.4-42.7V436.8
			C427.4,447.2,439.8,453.8,490.1,453.6z"/>
		<g>
			<path fill="#3F3E3F" d="M468.7,503.2c0-7.9-6.4-14.2-14.2-14.2c0,0,0,0,0,0c0,0.2,0,0.3,0,0.4c0,7.9-6.3,14.2-14.2,14.2
				c0.2,7.7,6.5,13.8,14.2,13.8C462.3,517.4,468.7,511.1,468.7,503.2z"/>
		</g>
		<g>
			<path fill="#3F3E3F" d="M539.9,503.2c0-7.9-6.4-14.2-14.2-14.2c0,0,0,0,0,0c0,0.1,0,0.3,0,0.4c0,7.9-6.3,14.2-14.2,14.2
				c0.2,7.7,6.5,13.8,14.2,13.8C533.5,517.4,539.9,511.1,539.9,503.2z"/>
		</g>
		<g>
			<polygon fill="#FFFFFF" points="404.7,652.7 418.9,645.6 490,681 447.4,723.9 			"/>
		</g>
		<g>
			<polygon fill="#FFFFFF" points="575.5,652.7 561.3,645.6 490.2,681 532.8,723.9 			"/>
		</g>
		<g>
			<polygon fill="#069686" points="518.5,788 498.6,715.4 511.4,702.6 489.9,681 468.6,702.4 481.5,715.3 461.6,788 			"/>
		</g>
		<g>
			<polygon fill="#1DB1A0" points="490.1,788 490.1,681.2 489.9,681 468.6,702.4 481.5,715.3 461.6,788 			"/>
		</g>
		<g>
			<path fill="#3F3E3F" d="M262.3,788l28.5-78.3c4.4-9.5,12.1-17,21.7-21.2l92.2-35.7L490.1,788H262.3z"/>
		</g>
		<g>
			<path fill="#3F3E3F" d="M717.9,788l-28.5-78.3c-4.4-9.5-12.1-17-21.7-21.2l-92.2-35.7L490.1,788H717.9z"/>
		</g>
		<g>
			<rect x="568.4" y="738.1" fill="#FFFFFF" width="71.2" height="14.2"/>
		</g>
		<g>
			<path fill="#F8C7C8" d="M461.6,574.4h56.9c0,0,0,28.5-28.5,28.5C461.6,602.9,461.6,574.4,461.6,574.4z"/>
		</g>
	</g>
</g>
<g>
	<g>
		<path fill="#EFCACB" d="M457.8,603.1l-20.3-52.9c-5-13.1-15.8-23.1-29.3-27.1l-75-17.9v-46.9c-16.1,24.9-38,36.7-56.6,42.9
			c-18.6-6.2-40.5-17.9-56.6-42.7v59.7c0,0,11.3,22.7,56.6,22.7v62.3H457.8z"/>
		<path fill="#3C3317" d="M333.2,505.2l28.3,6.8v-97c-3.2,3.3-7.3,5.6-12.3,6.5c-4,14.8-9.5,26.9-16,36.9V505.2z"/>
		<path fill="#F9D6D5" d="M220,458.4v46.8l-75,17.9c-13.4,4-24.2,14-29.3,27.1l-20.3,52.9h181.2V501.1
			C258,494.9,236.1,483.3,220,458.4z"/>
		<path fill="#F9D6D5" d="M361.7,365.2C361.7,365.3,361.7,365.3,361.7,365.2c-8.7,2.4-49.6-8.2-51-91.9c-9.3-2.8-20.5-4.3-34-4.3
			c-73.5,0-79.2,45.1-79.3,96.2c0,95.1,45.3,124.7,79.3,136c26.1-8.7,58.8-28.2,72.6-79.7c18.8-3.2,23.7-26.1,23.7-43.6
			C372.9,371.6,367.3,365.4,361.7,365.2z"/>
		<g>
			<path fill="#F39215" d="M437.5,550.2c-3.3-8.6-9.2-15.9-16.6-21c-13.9,26-75.8,45.5-149.9,45.5c-68.3,0-126.1-16.6-145.7-39.5
				c-4,4.3-7.3,9.3-9.5,14.9l-20.3,52.9h181.2h181.2L437.5,550.2z"/>
		</g>
		<g>
			<path fill="#FAE5E5" d="M276.6,269c-73.5,0-79.2,45.1-79.3,96.2c0,95.1,45.3,124.7,79.3,136V269z"/>
		</g>
		<g>
			<path fill="#3C3317" d="M259.6,376.6c0-6.3-5.1-11.3-11.3-11.3c0,0,0,0,0,0c0,0.1,0,0.2,0,0.4c0,6.2-5.1,11.3-11.3,11.3
				c0.2,6.1,5.2,11,11.3,11C254.6,387.9,259.6,382.8,259.6,376.6z"/>
		</g>
		<g>
			<path fill="#3C3317" d="M316.2,376.6c0-6.3-5.1-11.3-11.3-11.3c0,0,0,0,0,0c0,0.1,0,0.2,0,0.4c0,6.2-5.1,11.3-11.3,11.3
				c0.2,6.1,5.2,11,11.3,11C311.2,387.9,316.2,382.8,316.2,376.6z"/>
		</g>
		<g>
			<path fill="#F29394" d="M248.3,438.8h56.6c0,0,0,17-28.3,17S248.3,438.8,248.3,438.8z"/>
		</g>
		<g>
			<path fill="#3C3317" d="M174.7,331.3v260.5c0,0,62.3-34,62.3-137.6v-88.9c0-90.5,79.3-45.3,73.6-96.3
				C310.6,223.7,174.7,246.3,174.7,331.3z"/>
		</g>
		<g>
			<path fill="#3C3317" d="M310.6,269.3c0.1,87.4,42.3,98.4,51.1,96c0-18.4,12-96.1-50.7-96.4C310.8,269,310.6,269.1,310.6,269.3z"
				/>
		</g>
		<g>
			<path fill="#FFFFFF" d="M357.9,427.5l8.6,20.9c1.4,3.5,0.7,7.5-2,10.2c-3.7,3.7-9.6,3.7-13.2,0c-2.7-2.7-3.5-6.7-2-10.2
				L357.9,427.5z"/>
		</g>
	</g>
	<g>
		<path fill="#F9D6D5" d="M803.2,366c-9.7,5.4-9.8,10.9-9.8,20.6v6.6H782v-68c-20.9,5-45,7.3-68,5.9v0.1c-22.7-1.3-49.6-6.9-68-20
			v82.1h-11.3v17l22.7,56.7l28.9,22.7c3.2,3.6,7.8,5.7,12.7,5.7H714H729c4.9,0,9.5-2.1,12.7-5.7l28.9-22.7l18.2-45.5
			c16.1-1.2,21.5-25.5,21.5-44C810.4,372.8,807.2,368.1,803.2,366z"/>
		<path fill="#EFCACB" d="M729,495.3H714h-15.1c-4.9,0-9.5-2.1-12.7-5.7L657.3,467v22.7L714,535c0,0,0,0,0,0c0,0,0,0,0,0l56.7-45.4
			V467l-28.9,22.7C738.5,493.3,733.9,495.3,729,495.3z"/>
		<path fill="#F9D6D5" d="M686.2,489.6L657.3,467v22.7L714,535c0,0,0,0,0,0v-39.7h-15.1C694.1,495.3,689.5,493.3,686.2,489.6z"/>
		<path fill="#FAE5E5" d="M645.9,393.3h-11.3v-6.6c0-9.7-0.1-15.3-9.8-20.6c-4,2.1-7.2,6.8-7.2,11.5c0,18.4,5.4,42.8,21.5,44
			l18.2,45.5l28.9,22.7c3.2,3.6,7.8,5.7,12.7,5.7H714V331.3c-26.1-1.5-50.8-7.8-68-20V393.3z"/>
		<g>
			<polygon fill="#FFFFFF" points="681.1,550.9 714,603.1 746.9,550.9 782,495.3 770.7,489.7 714,535 657.3,489.7 645.9,495.3 			
				"/>
		</g>
		<g>
			<path fill="#F29394" d="M685.6,433h56.7c0,0,0,17-28.3,17C685.6,450,685.6,433,685.6,433z"/>
		</g>
		<g>
			<path fill="#3C3317" d="M532.6,603.1l22.7-62.4c3.5-7.6,9.6-13.6,17.3-16.9l73.5-28.5l68,107.7H532.6z"/>
		</g>
		<g>
			<path fill="#3C3317" d="M895.4,603.1l-22.7-62.4c-3.5-7.6-9.6-13.6-17.3-16.9L782,495.4l-68,107.7H895.4z"/>
		</g>
		<g>
			<polygon fill="#957715" points="628.9,501 691.3,603.1 714,603.1 705.5,589.7 645.9,495.4 			"/>
		</g>
		<g>
			<polygon fill="#957715" points="799,501 736.7,603.1 714,603.1 722.4,589.7 782,495.4 			"/>
		</g>
		<path fill="#F8A815" d="M765,523.7L726.8,541c-3.1-3.6-7.7-6-12.9-6s-9.8,2.4-12.9,6L663,523.7v56.7l38.2-17.3
			c3.1,3.6,7.7,6,12.9,6s9.8-2.4,12.9-6l38.2,17.3V523.7z"/>
		<g>
			<path fill="#3C3317" d="M750.8,342.3c-8.7,0-16.6,3.6-22.2,9.3c-9.2-4.7-20-4.7-29.2,0c-5.7-5.8-13.5-9.3-22.2-9.3
				c-17.2,0-31.2,14-31.2,31.2c0,17.2,14,31.2,31.2,31.2s31.2-14,31.2-31.2c0-5-1.2-9.8-3.3-14c5.7-2.5,12.3-2.5,18,0
				c-2.1,4.2-3.3,8.9-3.3,14c0,17.2,14,31.2,31.2,31.2c17.2,0,31.2-14,31.2-31.2S768.1,342.3,750.8,342.3z"/>
		</g>
		<g>
			<circle fill="#FFE9A1" cx="677.1" cy="373.5" r="19.8"/>
		</g>
		<g>
			<circle fill="#FFE9A1" cx="750.8" cy="373.5" r="19.8"/>
		</g>
		<g>
			<path fill="#FFF5D9" d="M677.1,353.6c-11,0-19.8,8.9-19.8,19.8c0,5.6,2.4,10.7,6.1,14.3l28-28C687.8,356,682.8,353.6,677.1,353.6
				z"/>
		</g>
		<g>
			<path fill="#FFF5D9" d="M750.7,353.6c-11,0-19.8,8.9-19.8,19.8c0,5.6,2.4,10.7,6.1,14.3l28-28C761.4,356,756.3,353.6,750.7,353.6
				z"/>
		</g>
		<path fill="#665215" d="M827.4,306c-11-75.1-192.8-80.3-192.8-11.4c0,5,0,6.4,0,6.4c28.1,32.8,97.1,36.4,147.4,24.3v68h11.3v-6.6
			c0-10.3,0-15.8,11.3-21.5v-46.9C813.7,314.7,821.5,310.6,827.4,306z"/>
		<path fill="#957715" d="M714,246.2c-41.8,1.1-79.2,17-79.4,48.2c-6.8,3.9-11.4,11.2-11.4,19.5v51.2c11.3,5.7,11.3,11.2,11.3,21.5
			v6.6h11.3v-82.1c17.2,12.3,42,18.5,68,20V246.2z"/>
	</g>
	<g>
		<g>
			<polygon fill="#FFF5D9" points="489.1,767 410.9,643.2 567.3,643.2 			"/>
		</g>
		<g>
			<path fill="#F9D6D5" d="M515.2,643.4h-26.1H463L423.9,619v21c0,0,0,48.9,65.2,48.9s65.2-48.9,65.2-48.9v-21L515.2,643.4z"/>
		</g>
		<path fill="#F9D6D5" d="M599.9,507.8c0-7.2-6.5-14.5-13-14.5s-6.5,7.2-6.5,7.2v-7.2c-0.1-58.6-6.7-97.7-91.2-97.7
			s-91.1,39.1-91.2,97.7v52.1l26.1,65.2l33.3,26c3.7,4.2,9,6.5,14.6,6.5h17.3h17.3c5.6,0,10.9-2.4,14.6-6.5l33.3-26l20.9-52.2
			C593.6,557.1,599.9,529,599.9,507.8z"/>
		<path fill="#FAE5E5" d="M397.9,493.4v7.2c0,0,0-7.2-6.5-7.2c-6.5,0-13,7.2-13,14.5c0,21.2,6.2,49.2,24.7,50.5l20.9,52.2l33.3,26
			c3.7,4.2,9,6.5,14.6,6.5h17.3V395.6C404.6,395.6,398,434.7,397.9,493.4z"/>
		<g>
			<polygon fill="#F9D6D5" points="443.5,591.3 443.6,591.1 436.9,591.1 437,591.3 			"/>
			<path fill="#F9D6D5" d="M489.1,643.4H463L423.9,619v21c0,0,0,48.9,65.2,48.9L489.1,643.4L489.1,643.4z"/>
		</g>
		<path fill="#3C3317" d="M572.6,423.5c0.6-2.7,1-5.5,1-8.2c0-18.5-5.9-31.2-84.4-32.4v-0.2c-4.1-0.1-8.4-0.1-12.9-0.1
			c-81.5,0-85,52-84.8,63.1c0,1.3,0.1,2.1,0.1,2.1s0,32.7,0,45.7c0,0,0,0.1,0,0.1c0,0,6.5,13,13,26.1v45.6l6.4,45.6l52.1,32.6h26.1
			l0,0h26.1l52.1-32.6l6.4-45.6v-45.6h0.2l13-26.1v-32.8C586.9,447.9,582.1,435.1,572.6,423.5z M541.2,591.3h-6.5l-13-39.1h-32.6
			l0,0h-32.6l-13,39.1H437l-19.5-39.1V445.6c21.8,14.6,44.4,15.5,71.7,15.3v0c17-0.1,51.4,0.2,71.7-18.2v109.4L541.2,591.3z"/>
		<path fill="#665215" d="M489.1,461v-78.3c-4.1-0.1-8.4-0.1-12.9-0.1c-91.2,0-84.7,65.2-84.7,65.2s0,32.8,0,45.8
			c0,0,6.5,13,13,26.1v45.6l6.4,45.6l52.1,32.6h26.1v-91.2h-32.6l-13,39.1H437l-19.5-39.1V445.6C431.7,455.2,443.1,461.1,489.1,461z
			"/>
		<g>
			<path fill="#3C3317" d="M469.6,506.4c0-7.2-5.8-13-13-13c0,0,0,0,0,0c0,0.1,0,0.3,0,0.4c0,7.2-5.8,13-13,13
				c0.2,7,5.9,12.6,13,12.6C463.7,519.4,469.6,513.6,469.6,506.4z"/>
		</g>
		<g>
			<path fill="#3C3317" d="M534.7,506.4c0-7.2-5.8-13-13-13c0,0,0,0,0,0c0,0.1,0,0.3,0,0.4c0,7.2-5.8,13-13,13
				c0.2,7,5.9,12.6,13,12.6C528.8,519.4,534.7,513.6,534.7,506.4z"/>
		</g>
		<g>
			<polygon fill="#FFFFFF" points="410.9,643.2 423.9,636.7 489,669.1 450,708.4 			"/>
		</g>
		<g>
			<polygon fill="#FFFFFF" points="567.3,643.2 554.3,636.7 489.2,669.1 528.2,708.4 			"/>
		</g>
		<g>
			<polygon fill="#F39215" points="515.2,767 496.9,700.6 508.6,688.8 489,669.1 469.4,688.7 481.3,700.5 463,767 			"/>
		</g>
		<g>
			<polygon fill="#F8A815" points="489.1,767 489.1,669.3 489,669.1 469.4,688.7 481.3,700.5 463,767 			"/>
		</g>
		<g>
			<path fill="#3C3317" d="M280.6,767l26.1-71.7c4-8.7,11.1-15.6,19.8-19.4l84.4-32.7L489.1,767H280.6z"/>
		</g>
		<g>
			<path fill="#3C3317" d="M697.6,767l-26.1-71.7c-4-8.7-11.1-15.6-19.8-19.4l-84.4-32.7L489.1,767H697.6z"/>
		</g>
		<g>
			<rect x="560.8" y="721.4" fill="#FFFFFF" width="65.2" height="13"/>
		</g>
		<g>
			<path fill="#F9D6D5" d="M463,571.5h52.1c0,0,0,26.1-26.1,26.1S463,571.5,463,571.5z"/>
		</g>
	</g>
</g>
</svg>
