<?xml version="1.0" encoding="utf-8"?>
<!-- Generator: Adobe Illustrator 17.1.0, SVG Export Plug-In . SVG Version: 6.00 Build 0)  -->
<!DOCTYPE svg PUBLIC "-//W3C//DTD SVG 1.1//EN" "http://www.w3.org/Graphics/SVG/1.1/DTD/svg11.dtd">
<svg version="1.1" id="Layer_1" xmlns="http://www.w3.org/2000/svg" xmlns:xlink="http://www.w3.org/1999/xlink" x="0px" y="0px"
	 viewBox="0 0 990 990" enable-background="new 0 0 990 990" xml:space="preserve">
<g>
	<circle fill="#C1D356" cx="495" cy="495" r="495"/>
	<path fill="#9DB138" d="M989.6,508.9L757.9,277.1c-0.1-0.2-0.2-0.3-0.4-0.5l-2.6-2.6c-0.2-0.2-0.3-0.2-0.5-0.4
		c-2.1-1.4-4.6-2.2-7.2-2.2H242.8c-7.1,0-12.9,5.9-12.9,12.9v325.6c0,2.4,0.6,4.6,1.8,6.5l4.6,4.6l358.8,358.8
		C816.1,934.4,983.2,741.7,989.6,508.9z"/>
	<polygon fill="#CEE2F2" points="564,708.2 425.9,708.2 443.5,622.8 546.5,622.8 	"/>
	<polygon fill="#A6C8E6" points="564,708.2 546.5,622.8 443.5,622.8 528.8,708.2 	"/>
	<rect x="388.9" y="708.2" fill="#F3F9FE" width="212.1" height="10.3"/>
	<path fill="#364A5E" d="M242.8,271.4c-7.1,0-12.9,5.8-12.9,12.9v325.6c0,7.1,5.8,12.9,12.9,12.9h504.4c7.1,0,12.9-5.8,12.9-12.9
		V284.3c0-7.1-5.8-12.9-12.9-12.9L242.8,271.4L242.8,271.4z"/>
	<rect x="256.7" y="298.2" fill="#FFFFFF" width="476.5" height="297.8"/>
	<g>
		<rect x="283.2" y="325.7" fill="#0585BB" width="20.9" height="7"/>
		<rect x="283.2" y="359" fill="#0585BB" width="20.9" height="7"/>
	</g>
	<g>
		<rect x="309.4" y="325.7" fill="#364A5E" width="23.8" height="7"/>
		<rect x="309.4" y="359" fill="#364A5E" width="75.3" height="7"/>
	</g>
	<g>
		<rect x="335.9" y="325.7" fill="#0585BB" width="19.1" height="7"/>
		<rect x="304" y="338.4" fill="#0585BB" width="33.1" height="7"/>
		<rect x="304" y="397" fill="#0585BB" width="33.1" height="7"/>
		<rect x="304" y="472.9" fill="#0585BB" width="33.1" height="7"/>
		<rect x="304" y="409.7" fill="#0585BB" width="13.7" height="7"/>
		<rect x="345" y="397" fill="#0585BB" width="86.7" height="7"/>
		<rect x="339.5" y="435" fill="#0585BB" width="30.2" height="7"/>
		<rect x="340.4" y="460.4" fill="#0585BB" width="30.2" height="7"/>
		<rect x="340.4" y="561.5" fill="#0585BB" width="30.2" height="7"/>
	</g>
	<g>
		<rect x="377.5" y="435" fill="#C1D356" width="49" height="7"/>
		<rect x="377.5" y="460.4" fill="#C1D356" width="21.3" height="7"/>
		<rect x="364.7" y="485.6" fill="#C1D356" width="25" height="7"/>
		<rect x="364.7" y="536.2" fill="#C1D356" width="48" height="7"/>
		<rect x="380.3" y="561.5" fill="#C1D356" width="17.7" height="7"/>
		<rect x="502" y="510.9" fill="#C1D356" width="25" height="7"/>
	</g>
	<rect x="436.2" y="435" fill="#364A5E" width="27" height="7"/>
	<rect x="468.3" y="435" fill="#C1D356" width="12.8" height="7"/>
	<g>
		<rect x="441.5" y="397" fill="#364A5E" width="62.3" height="7"/>
		<rect x="516.5" y="397" fill="#364A5E" width="38.2" height="7"/>
		<rect x="304" y="371.7" fill="#364A5E" width="49.5" height="7"/>
		<rect x="304" y="384.4" fill="#364A5E" width="70.2" height="7"/>
		<rect x="322.7" y="409.7" fill="#364A5E" width="80.4" height="7"/>
		<rect x="322.7" y="498.3" fill="#364A5E" width="80.4" height="7"/>
		<rect x="348.2" y="510.9" fill="#364A5E" width="48.5" height="7"/>
		<rect x="348.2" y="548.9" fill="#364A5E" width="23.3" height="7"/>
		<rect x="398" y="548.9" fill="#364A5E" width="48.9" height="7"/>
		<rect x="412.7" y="561.5" fill="#364A5E" width="34.2" height="7"/>
		<rect x="420.6" y="510.9" fill="#364A5E" width="76.6" height="7"/>
		<rect x="420.6" y="536.2" fill="#364A5E" width="76.6" height="7"/>
	</g>
	<g>
		<rect x="322.7" y="422.4" fill="#0585BB" width="11.1" height="7"/>
		<rect x="322.7" y="447.7" fill="#0585BB" width="28.4" height="7"/>
		<rect x="322.7" y="485.6" fill="#0585BB" width="28.4" height="7"/>
		<rect x="322.7" y="510.9" fill="#0585BB" width="19.1" height="7"/>
		<rect x="322.7" y="536.2" fill="#0585BB" width="32.7" height="7"/>
		<rect x="322.7" y="548.9" fill="#0585BB" width="17.6" height="7"/>
		<rect x="377.5" y="548.9" fill="#0585BB" width="15" height="7"/>
		<rect x="402" y="510.9" fill="#0585BB" width="12.8" height="7"/>
	</g>
	<g>
		<rect x="339.5" y="422.4" fill="#364A5E" width="17.5" height="7"/>
		<rect x="339.5" y="523.6" fill="#364A5E" width="50.2" height="7"/>
		<rect x="397" y="523.6" fill="#364A5E" width="39.9" height="7"/>
		<rect x="439" y="523.6" fill="#364A5E" width="88.1" height="7"/>
	</g>
	<rect x="359.9" y="422.4" fill="#C1D356" width="14.3" height="7"/>
	<rect x="377.5" y="422.4" fill="#364A5E" width="49" height="7"/>
	<rect x="407.7" y="409.7" fill="#C1D356" width="14.4" height="7"/>
	<rect x="436.2" y="409.7" fill="#F28D3A" width="27" height="7"/>
	<rect x="381.7" y="384.4" fill="#364A5E" width="70.2" height="7"/>
	<g>
		<rect x="525.8" y="384.4" fill="#F28D3A" width="21.8" height="7"/>
		<rect x="456.7" y="384.4" fill="#F28D3A" width="43.8" height="7"/>
	</g>
	<g>
		<rect x="503.9" y="384.4" fill="#C1D356" width="14.3" height="7"/>
		<rect x="552.5" y="384.4" fill="#C1D356" width="14.3" height="7"/>
	</g>
	<rect x="369.7" y="371.7" fill="#364A5E" width="76" height="7"/>
	<rect x="357" y="371.7" fill="#0585BB" width="9.2" height="7"/>
	<rect x="341.5" y="338.4" fill="#364A5E" width="13.5" height="7"/>
	<rect x="357.9" y="338.4" fill="#C1D356" width="10.8" height="7"/>
	<polygon fill="#364A5E" points="650.4,494.8 650.4,489.5 647.8,489.5 647.8,486.9 645.2,486.9 645.2,484.3 642.5,484.3 
		642.5,481.6 639.9,481.6 639.9,479 637.3,479 637.3,476.3 634.7,476.3 634.7,473.7 632,473.7 632,471.1 629.4,471.1 629.4,468.5 
		626.7,468.5 626.7,465.8 624.1,465.8 624.1,463.2 621.5,463.2 621.5,460.6 618.9,460.6 618.9,505.3 624.1,505.3 624.1,502.7 
		626.7,502.7 626.7,500 629.4,500 629.4,497.4 632,497.4 632,502.7 634.7,502.7 634.7,507.9 637.3,507.9 637.3,510.6 642.5,510.6 
		642.5,507.9 645.2,507.9 645.2,502.7 642.5,502.7 642.5,497.4 639.9,497.4 639.9,494.8 	"/>
</g>
<g id="Layer_3">
	<g>
		<rect x="594.8" y="552.6" fill="#F2FAFF" width="221" height="203.8"/>
		<g>
			<path fill="#798B9C" d="M814.1,554.2v200.6H596.6V554.2H814.1 M817.6,551H593.1v207h224.5V551L817.6,551z"/>
		</g>
	</g>
	<polygon fill="#F2FAFF" points="805.2,601.1 784.8,601.1 784.8,667.1 805.2,648.2 	"/>
	<polygon fill="#F2FAFF" points="784.8,582.2 784.8,601.1 713.1,601.1 733.6,582.2 	"/>
	<g>
		<polygon fill="#F5CE85" points="722.1,629.9 736.1,616.9 763.4,638.9 747.7,653.4 707.7,666.6 		"/>
		<path fill="#967B44" d="M736.2,618.7l25.2,20.2L747,652.2L710,664.5l13.3-33.9L736.2,618.7 M736.1,615.2l-15.2,14l-15.5,39.7
			l43.1-14.3l17-15.7L736.1,615.2L736.1,615.2z"/>
	</g>
	<g>
		<polygon fill="#37414E" points="705.4,668.8 730.8,660.4 714.5,645.4 		"/>
	</g>
	<g>
		<path fill="#F18F90" d="M818.7,540.7l12.2-11.2c3.4-3.2,8-4.9,12.8-4.9c4.8,0,9.4,1.7,12.8,4.9c7,6.5,7,17.1,0,23.6l-12.2,11.2
			L818.7,540.7z"/>
		<g>
			<path fill="#C84544" d="M843.6,526c4.5,0,8.6,1.6,11.8,4.5c6.5,6,6.5,15.7,0,21.7l-11.2,10.3l-23.6-21.7l11.2-10.3
				C835,527.5,839.2,526,843.6,526 M843.6,523.4c-5,0-10,1.8-13.8,5.3l-13.2,12.1l27.6,25.4l13.2-12.1c7.6-7,7.6-18.4,0-25.4l0,0
				C853.6,525.1,848.6,523.4,843.6,523.4L843.6,523.4z"/>
		</g>
	</g>
	<g>
		<path fill="#FFEFA4" d="M749.7,651.5c-0.3-1.1-0.8-2.3-1.8-3.4c-1.5-1.7-3.8-2.6-6.8-2.8c-0.7-6.4-6.2-8.7-10.1-9.3
			c-0.5-4.9-4-7.1-7.2-7.8l88.6-81.8l25.6,23.6L749.7,651.5z"/>
		<g>
			<path fill="#BB9C48" d="M812.5,548.3l23.6,21.7l-85.8,79.1c-0.3-0.6-0.8-1.3-1.3-1.8c-1.6-1.7-3.8-2.8-6.6-3.2
				c-1.1-5.8-6.1-8.4-10.1-9.2c-0.7-3.9-3.2-6.1-5.9-7.3L812.5,548.3 M812.5,544.6l-91.6,84.6c0,0,0,0,0.1,0c1,0,8.7,0.3,8.7,8.1
				c0,0,10.1,0.3,10.1,9.3c10.1,0,8.7,7.9,8.7,7.9l91.6-84.5L812.5,544.6L812.5,544.6z"/>
		</g>
	</g>
	<g>
		<polygon fill="#D9E7F5" points="811,547.9 827.6,532.5 853.2,556.1 836.5,571.4 		"/>
		<g>
			<path fill="#798B9C" d="M827.6,534.3l23.6,21.7l-14.7,13.5l-23.6-21.7L827.6,534.3 M827.6,530.7L809,547.9l27.6,25.4l18.7-17.2
				L827.6,530.7L827.6,530.7z"/>
		</g>
	</g>
</g>
</svg>
